<svg width="51" height="50" viewBox="0 0 51 50" fill="none" xmlns="http://www.w3.org/2000/svg">
<g clip-path="url(#clip0_77_591)">
<path d="M22.5582 -0.0757564C11.6648 1.20674 2.73285 9.96112 1.06925 21.018C-0.145826 29.0955 2.44241 36.6405 7.28984 42.0161C6.77697 45.2674 6.26042 48.5167 5.74388 51.768C5.69057 52.1074 6.038 52.3624 6.33579 52.2011L14.709 47.673C18.7439 49.6755 23.3744 50.5792 28.2623 50.043C39.3487 48.828 48.4369 39.8692 49.9792 28.6061C52.2476 12.0517 38.7255 -1.98076 22.5582 -0.0757564ZM33.8101 27.3574L26.9994 34.3042C26.1704 35.1499 24.8266 35.1499 23.9976 34.3042L17.1869 27.3574C15.0509 25.1786 15.0509 21.6461 17.1869 19.4655L17.1906 19.4617C19.3248 17.2849 22.7843 17.283 24.9222 19.4561L25.2696 19.8105C25.3965 19.9399 25.6005 19.9399 25.7273 19.8105L26.0748 19.4561C28.2126 17.283 31.6722 17.2849 33.8064 19.4617L33.8101 19.4655C35.9461 21.6442 35.9461 25.1786 33.8101 27.3574Z" fill="#2151F5"/>
</g>
<defs>
<clipPath id="clip0_77_591">
<rect x="0.5" width="50" height="50" rx="25" fill="white"/>
</clipPath>
</defs>
</svg>
