<svg width="140" height="54" viewBox="0 0 140 54" fill="none" xmlns="http://www.w3.org/2000/svg">
<path d="M65.4297 14.0234H68.9304C70.3475 14.0234 71.2975 14.4752 71.2975 15.8641C71.2975 16.6172 70.9477 17.1024 70.2805 17.4204C71.1974 17.6882 71.648 18.3742 71.648 19.3113C71.648 20.8341 70.3645 21.4699 69.0305 21.4699H65.4297V14.0234ZM67.0634 17.0355H68.7138C69.2974 17.0355 69.7142 16.7678 69.7142 16.1486C69.7142 15.4458 69.1641 15.2952 68.5971 15.2952H67.0634V17.0355ZM67.0634 20.1982H68.8138C69.4469 20.1982 70.0139 19.9974 70.0139 19.2109C70.0139 18.4412 69.547 18.1399 68.8304 18.1399H67.0467V20.1982H67.0634Z" fill="white"/>
<path d="M76.9857 18.7256L79.0697 21.4867H77.0696L75.2021 18.8093H74.4023V21.4867H72.752V14.0234H76.1027C77.9695 14.0234 78.6861 15.2115 78.6861 16.4163C78.6861 17.4371 78.1529 18.4579 76.9194 18.7256H76.9857ZM74.4023 15.2952V17.5375H75.6689C76.4525 17.5375 77.1028 17.3534 77.1028 16.4163C77.1028 15.4458 76.4525 15.2952 75.6689 15.2952H74.4023Z" fill="white"/>
<path d="M80.2695 14.0234H81.9029V21.4867H80.2695V14.0234Z" fill="white"/>
<path d="M89.8714 19.5949C89.2381 20.7997 87.9376 21.6029 86.5038 21.6029C84.3865 21.6029 82.6699 19.8626 82.6699 17.7374C82.6699 15.6122 84.4035 13.8887 86.5038 13.8887C87.9376 13.8887 89.2042 14.6919 89.8714 15.8465C89.2212 16.1811 89.1711 16.2146 88.4376 16.5828C88.0539 15.9134 87.3374 15.4783 86.5038 15.4783C85.2533 15.4783 84.2533 16.4824 84.2533 17.7374C84.2533 19.0092 85.2533 19.9965 86.5038 19.9965C87.3374 19.9965 88.171 19.5781 88.4708 18.8753H88.3043C87.9707 18.8753 87.2041 18.8921 86.7873 18.8921C86.587 18.8921 86.5038 18.8921 86.5038 18.8753V17.5032C87.5539 17.5032 89.0209 17.5199 90.3045 17.5199C90.3045 17.7207 90.2713 19.0928 89.8714 19.5949Z" fill="white"/>
<path d="M96.0531 18.2732H92.6022V21.4527H91.002V13.9727H92.6022V16.6836H96.0531V13.9894H97.6533V21.4527H96.0531V18.2732Z" fill="white"/>
<path d="M100.854 15.3956H98.4863V14.0234H104.821V15.3956H102.47V21.4699H100.837V15.3956H100.854Z" fill="white"/>
<path d="M72.0296 29.1838C71.3963 30.3886 70.0958 31.1918 68.6623 31.1918C66.5452 31.1918 64.8281 29.4515 64.8281 27.3263C64.8281 25.2011 66.5619 23.4775 68.6623 23.4775C70.0958 23.4775 71.3631 24.2808 72.0296 25.4354C71.3794 25.7701 71.3293 25.8036 70.5958 26.1717C70.2129 25.5024 69.4956 25.0673 68.6623 25.0673C67.4121 25.0673 66.4118 26.0713 66.4118 27.3263C66.4118 28.5981 67.4121 29.5854 68.6623 29.5854C69.4956 29.5854 70.3292 29.1671 70.6297 28.4642H70.4625C70.1296 28.4642 69.3623 28.481 68.9458 28.481C68.7457 28.481 68.6623 28.481 68.6623 28.4642V27.092C69.7128 27.092 71.1798 27.1088 72.4634 27.1088C72.4634 27.2929 72.4133 28.6818 72.0296 29.1838Z" fill="white"/>
<path d="M73.168 31.008V23.5615H74.7682V29.6191H78.5858V30.9913H73.168V31.008Z" fill="white"/>
<path d="M83.0845 31.1596C80.9673 31.1596 79.25 29.4361 79.25 27.3108C79.25 25.1689 80.9673 23.4453 83.0845 23.4453C85.2011 23.4453 86.9353 25.1689 86.9353 27.3108C86.9353 29.4361 85.1848 31.1596 83.0845 31.1596ZM80.8171 27.2941C80.8171 28.5324 81.8503 29.5699 83.0845 29.5699C84.3181 29.5699 85.3351 28.5324 85.3351 27.2941C85.3351 26.0558 84.3181 25.0016 83.0845 25.0016C81.8341 25.0183 80.8171 26.0558 80.8171 27.2941Z" fill="white"/>
<path d="M87.7188 23.5938H91.219C92.6366 23.5938 93.5866 24.0455 93.5866 25.4344C93.5866 26.1874 93.2368 26.6727 92.5696 26.9907C93.4864 27.2584 93.9364 27.9446 93.9364 28.8816C93.9364 30.4044 92.6528 31.0403 91.3191 31.0403H87.7188V23.5938ZM89.3522 26.6225H91.0025C91.5857 26.6225 92.0025 26.3548 92.0025 25.7357C92.0025 25.0329 91.4694 24.8822 90.8861 24.8822H89.3522V26.6225ZM89.3522 29.7852H91.1026C91.736 29.7852 92.303 29.5844 92.303 28.7979C92.303 28.0282 91.8361 27.727 91.1196 27.727H89.3352V29.7852H89.3522Z" fill="white"/>
<path d="M94.4023 31.0579L97.77 23.6113H99.4203L102.738 31.0579H101.154L100.42 29.4012H96.6698L95.8862 31.0579H94.4023ZM98.6198 25.017L97.3694 27.8952H99.8371L98.6198 25.017Z" fill="white"/>
<path d="M103.355 31.008V23.5615H104.956V29.6191H108.773V30.9913H103.355V31.008Z" fill="white"/>
<path d="M64.7148 40.6477L68.0823 33.2012H69.7324L73.05 40.6477H71.4667L70.7332 38.9911H66.982L66.1985 40.6477H64.7148ZM68.9324 34.5901L67.6822 37.4683H70.1492L68.9324 34.5901Z" fill="white"/>
<path d="M77.2011 40.6633C75.1171 40.6633 73.4336 38.9732 73.4336 36.8814C73.4336 34.8064 75.1171 33.0996 77.2011 33.0996C78.6342 33.0996 79.8346 33.8861 80.4686 35.0407C79.8346 35.3754 79.7845 35.4089 79.068 35.7435C78.7012 35.1076 78.0009 34.6726 77.2011 34.6726C75.9838 34.6726 75.0007 35.6766 75.0007 36.8814C75.0007 38.103 75.9838 39.0903 77.2011 39.0903C78.0348 39.0903 78.7682 38.6385 79.135 37.9356C79.8346 38.3038 79.8685 38.3373 80.5349 38.6385C79.9016 39.86 78.6681 40.6633 77.2011 40.6633Z" fill="white"/>
<path d="M84.9218 40.6633C82.8378 40.6633 81.1543 38.9732 81.1543 36.8814C81.1543 34.8064 82.8378 33.0996 84.9218 33.0996C86.3549 33.0996 87.5553 33.8861 88.1886 35.0407C87.5553 35.3754 87.5052 35.4089 86.7887 35.7435C86.4219 35.1076 85.7216 34.6726 84.9218 34.6726C83.7045 34.6726 82.7214 35.6766 82.7214 36.8814C82.7214 38.103 83.7045 39.0903 84.9218 39.0903C85.7548 39.0903 86.4889 38.6385 86.8557 37.9356C87.5553 38.3038 87.5892 38.3373 88.2556 38.6385C87.6054 39.86 86.3888 40.6633 84.9218 40.6633Z" fill="white"/>
<path d="M92.5721 40.7475C90.4549 40.7475 88.7383 39.0239 88.7383 36.8987C88.7383 34.7568 90.4549 33.0332 92.5721 33.0332C94.6893 33.0332 96.4229 34.7568 96.4229 36.8987C96.4229 39.0239 94.6724 40.7475 92.5721 40.7475ZM90.2885 36.882C90.2885 38.1203 91.3217 39.1578 92.5552 39.1578C93.7894 39.1578 94.8057 38.1203 94.8057 36.882C94.8057 35.6437 93.7894 34.5894 92.5552 34.5894C91.3217 34.5894 90.2885 35.6437 90.2885 36.882Z" fill="white"/>
<path d="M103.669 37.816C103.669 39.8407 102.485 40.8113 100.501 40.8113C98.4843 40.8113 97.334 39.8574 97.334 37.816V33.1807H98.9681V37.816C98.9681 38.6359 99.1677 39.4391 100.501 39.4391C101.669 39.4391 102.035 38.9371 102.035 37.816V33.1807H103.669V37.816Z" fill="white"/>
<path d="M106.34 35.4912V40.6452H104.906V33.1484H106.774L110.091 37.8172V33.1484H111.474V40.6452H110.091L106.34 35.4912Z" fill="white"/>
<path d="M114.66 34.5733H112.293V33.2012H118.628V34.5733H116.277V40.6477H114.643V34.5733H114.66Z" fill="white"/>
<path d="M119.58 33.1807H121.213V40.644H119.58V33.1807Z" fill="white"/>
<path d="M123.844 35.4912V40.6452H122.41V33.1484H124.278L127.595 37.8172V33.1484H128.978V40.6452H127.595L123.844 35.4912Z" fill="white"/>
<path d="M136.897 38.7706C136.263 39.9755 134.963 40.7788 133.529 40.7788C131.412 40.7788 129.695 39.0384 129.695 36.9132C129.695 34.7881 131.429 33.0645 133.529 33.0645C134.963 33.0645 136.23 33.8677 136.897 35.0223C136.247 35.357 136.196 35.3904 135.463 35.7586C135.079 35.0892 134.363 34.6541 133.529 34.6541C132.279 34.6541 131.279 35.6582 131.279 36.9132C131.279 38.185 132.279 39.1723 133.529 39.1723C134.363 39.1723 135.196 38.7539 135.496 38.0511H135.33C134.996 38.0511 134.229 38.0678 133.813 38.0678C133.612 38.0678 133.529 38.0678 133.529 38.0511V36.679C134.579 36.679 136.046 36.6957 137.33 36.6957C137.314 36.8797 137.28 38.2686 136.897 38.7706Z" fill="white"/>
<path d="M66.3813 44.0601C66.3813 44.445 66.0812 44.696 65.6644 44.696H64.6309V42.5039H65.5477C65.9978 42.5039 66.2812 42.7549 66.2812 43.1398C66.2812 43.3071 66.2145 43.4577 66.0645 43.5581C66.2479 43.6418 66.3813 43.8426 66.3813 44.0601ZM65.4977 42.9891H65.1976V43.3573H65.4977C65.6311 43.3573 65.7144 43.2904 65.7144 43.1732C65.6978 43.0561 65.6311 42.9891 65.4977 42.9891ZM65.7978 44.0099C65.7978 43.8928 65.7144 43.8259 65.5811 43.8259H65.1976V44.194H65.5811C65.7144 44.194 65.7978 44.1271 65.7978 44.0099Z" fill="white"/>
<path d="M68.7497 44.6628V44.6963H68.133L67.9996 44.4118H67.1827L67.066 44.6963H66.4492V44.6628L67.4828 42.4707H67.7329L68.7497 44.6628ZM67.3828 43.9265H67.7829L67.5828 43.3911L67.3828 43.9265Z" fill="white"/>
<path d="M71.7164 42.5039V44.696H68.9492V42.5039H69.516V44.1773H70.0492V42.5039H70.6162V44.1773H71.1494V42.5039H71.7164Z" fill="white"/>
<path d="M74.6847 43.9764C74.6847 44.3614 74.4181 44.696 73.9018 44.696H72.918V42.5039H74.4851V43.0059H73.4681V43.2903H73.8849C74.435 43.2903 74.6847 43.5916 74.6847 43.9764ZM74.1183 43.9764C74.1183 43.8593 74.0351 43.7589 73.8849 43.7589H73.485V44.194H73.8849C74.0351 44.194 74.1183 44.0769 74.1183 43.9764Z" fill="white"/>
<path d="M76.9019 42.4863V44.6952H76.3356V43.9589V43.5908L75.1853 44.6952H75.002V42.503H75.5683V43.1891L75.5521 43.574L76.6854 42.4863H76.9019Z" fill="white"/>
<path d="M78.9992 44.0596C78.9992 44.4277 78.6994 44.729 78.1493 44.729C77.6493 44.729 77.2656 44.4445 77.2656 43.9089H77.7826C77.7995 44.093 77.9159 44.2269 78.1324 44.2269C78.3658 44.2269 78.4491 44.1098 78.4491 43.9927C78.4491 43.8588 78.3496 43.7584 78.1663 43.7584H77.9328V43.3233H78.1663C78.3327 43.3233 78.4328 43.2396 78.4328 43.1225C78.4328 43.0054 78.3327 42.9217 78.1493 42.9217C77.966 42.9217 77.8658 43.0054 77.8496 43.1057H77.3488C77.3488 42.6874 77.6662 42.4531 78.1493 42.4531C78.7164 42.4531 78.9498 42.7711 78.9498 43.1057C78.9498 43.2898 78.8497 43.4404 78.6994 43.5408C78.8828 43.6412 78.9992 43.842 78.9992 44.0596Z" fill="white"/>
<path d="M81.2367 42.5039V44.696H80.6697V43.8259H79.9362V44.696H79.3691V42.5039H79.9362V43.3071H80.6697V42.5039H81.2367Z" fill="white"/>
<path d="M83.0862 44.1773V44.696H81.6855V42.5039H83.0524V43.0226H82.2526V43.3406H82.9861V43.8426H82.2526V44.1773H83.0862Z" fill="white"/>
<path d="M83.3379 43.591C83.3379 42.9217 83.7879 42.4531 84.4381 42.4531C85.0214 42.4531 85.3881 42.7878 85.5052 43.2898H84.9381C84.8549 43.1057 84.6885 43.0054 84.4713 43.0054C84.1546 43.0054 83.9381 43.2396 83.9381 43.591C83.9381 43.9424 84.1546 44.1767 84.4713 44.1767C84.7047 44.1767 84.8881 44.0429 84.972 43.8588H85.5383C85.4382 44.3775 85.0552 44.729 84.455 44.729C83.8048 44.729 83.3379 44.2604 83.3379 43.591Z" fill="white"/>
<path d="M88.3013 44.0601C88.3013 44.445 88.0008 44.696 87.5847 44.696H86.5508V42.5039H87.4676C87.9176 42.5039 88.2011 42.7549 88.2011 43.1398C88.2011 43.3071 88.1348 43.4577 87.9846 43.5581C88.1842 43.6418 88.3013 43.8426 88.3013 44.0601ZM87.4176 42.9891H87.1178V43.3573H87.4176C87.5508 43.3573 87.6341 43.2904 87.6341 43.1732C87.6178 43.0561 87.5508 42.9891 87.4176 42.9891ZM87.718 44.0099C87.718 43.8928 87.6341 43.8259 87.5008 43.8259H87.1178V44.194H87.5008C87.6341 44.194 87.718 44.1271 87.718 44.0099Z" fill="white"/>
<path d="M91.4194 44.1773V45.1645H90.8862V44.696H89.4023V42.5039H89.9694V44.1773H90.6027V42.5039H91.1697V44.1773H91.4194Z" fill="white"/>
<path d="M93.6859 42.4863V44.6952H93.1188V43.9589V43.5908L91.9685 44.6952H91.7852V42.503H92.3522V43.1891L92.3353 43.574L93.4686 42.4863H93.6859Z" fill="white"/>
<path d="M95.5886 44.4779V44.729H95.0554V44.4779C94.4884 44.4612 94.0215 44.1767 94.0215 43.591C94.0215 43.0053 94.4884 42.7208 95.0554 42.6874V42.4531H95.5886V42.6874C96.1726 42.7041 96.6225 42.9718 96.6225 43.591C96.6056 44.2102 96.1387 44.4612 95.5886 44.4779ZM95.0554 44.0094V43.1894C94.805 43.2061 94.5885 43.2731 94.5885 43.591C94.5885 43.9089 94.8389 43.9927 95.0554 44.0094ZM96.0393 43.591C96.0393 43.2731 95.822 43.1894 95.5724 43.1894V44.0094C95.8058 43.9927 96.0393 43.9089 96.0393 43.591Z" fill="white"/>
<path d="M98.7198 43.2903C98.7198 43.7756 98.3862 44.0936 97.9031 44.0936H97.5195V44.696H96.9531V42.5039H97.9194C98.3862 42.5039 98.7198 42.8218 98.7198 43.2903ZM98.1366 43.2903C98.1366 43.1063 98.0195 42.9891 97.8361 42.9891H97.5032V43.5916H97.8361C98.0195 43.5916 98.1366 43.4912 98.1366 43.2903Z" fill="white"/>
<path d="M100.941 44.6628V44.6963H100.324L100.191 44.4118H99.3741L99.257 44.6963H98.6406V44.6628L99.6738 42.4707H99.9242L100.941 44.6628ZM99.5906 43.9265H99.9905L99.7909 43.3911L99.5906 43.9265Z" fill="white"/>
<path d="M103.087 44.6634V44.6968H102.437L102.004 43.9773L101.57 44.6968H100.92V44.6634L101.637 43.5422L101.003 42.5382V42.5215H101.637L102.02 43.1406L102.387 42.5215H103.02V42.5382L102.387 43.5589L103.087 44.6634Z" fill="white"/>
<path d="M103.957 43.5586H105.308V44.0104H103.957V43.5586Z" fill="white"/>
<path d="M108.342 42.5039V44.696H107.775V43.8259H107.042V44.696H106.475V42.5039H107.042V43.3071H107.775V42.5039H108.342Z" fill="white"/>
<path d="M110.842 44.6628V44.6963H110.225L110.092 44.4118H109.275L109.158 44.6963H108.541V44.6628L109.575 42.4707H109.825L110.842 44.6628ZM109.492 43.9265H109.892L109.691 43.3911L109.492 43.9265Z" fill="white"/>
<path d="M113.808 42.5039V44.696H111.041V42.5039H111.607V44.1773H112.141V42.5039H112.708V44.1773H113.241V42.5039H113.808Z" fill="white"/>
<path d="M116.312 44.6628V44.6963H115.696L115.562 44.4118H114.745L114.629 44.6963H114.012V44.6628L115.046 42.4707H115.295L116.312 44.6628ZM114.962 43.9265H115.362L115.162 43.3911L114.962 43.9265Z" fill="white"/>
<path d="M117.193 42.5039H119.01V44.696H118.444V43.0226H117.777V44.696H117.21V42.5039H117.193Z" fill="white"/>
<path d="M121.242 43.2903C121.242 43.7756 120.908 44.0936 120.425 44.0936H120.042V44.696H119.475V42.5039H120.442C120.925 42.5039 121.242 42.8218 121.242 43.2903ZM120.658 43.2903C120.658 43.1063 120.542 42.9891 120.358 42.9891H120.025V43.5916H120.358C120.559 43.5916 120.658 43.4912 120.658 43.2903Z" fill="white"/>
<path d="M121.43 43.591C121.43 42.9217 121.897 42.4531 122.58 42.4531C123.246 42.4531 123.73 42.9217 123.73 43.591C123.73 44.2604 123.263 44.729 122.58 44.729C121.913 44.729 121.43 44.2604 121.43 43.591ZM123.146 43.591C123.146 43.2396 122.93 43.0054 122.58 43.0054C122.246 43.0054 122.013 43.2396 122.013 43.591C122.013 43.9424 122.229 44.1767 122.58 44.1767C122.913 44.1767 123.146 43.9424 123.146 43.591Z" fill="white"/>
<path d="M125.493 44.4779V44.729H124.96V44.4779C124.393 44.4612 123.926 44.1767 123.926 43.591C123.926 43.0053 124.393 42.7208 124.96 42.6874V42.4531H125.493V42.6874C126.076 42.7041 126.527 42.9718 126.527 43.591C126.527 44.2102 126.06 44.4612 125.493 44.4779ZM124.976 44.0094V43.1894C124.726 43.2061 124.51 43.2731 124.51 43.591C124.51 43.9089 124.742 43.9927 124.976 44.0094ZM125.96 43.591C125.96 43.2731 125.743 43.1894 125.493 43.1894V44.0094C125.726 43.9927 125.96 43.9089 125.96 43.591Z" fill="white"/>
<path d="M128.244 44.1773V44.696H126.844V42.5039H128.211V43.0226H127.41V43.3406H128.144V43.8426H127.41V44.1773H128.244Z" fill="white"/>
<path d="M128.51 43.591C128.51 42.9217 128.96 42.4531 129.61 42.4531C130.194 42.4531 130.561 42.7878 130.677 43.2898H130.111C130.027 43.1057 129.86 43.0054 129.644 43.0054C129.327 43.0054 129.11 43.2396 129.11 43.591C129.11 43.9424 129.327 44.1767 129.644 44.1767C129.877 44.1767 130.061 44.0429 130.144 43.8588H130.71C130.611 44.3775 130.227 44.729 129.627 44.729C128.96 44.729 128.51 44.2604 128.51 43.591Z" fill="white"/>
<path d="M130.883 43.591C130.883 42.9217 131.333 42.4531 131.983 42.4531C132.566 42.4531 132.933 42.7878 133.05 43.2898H132.483C132.4 43.1057 132.233 43.0054 132.016 43.0054C131.7 43.0054 131.483 43.2396 131.483 43.591C131.483 43.9424 131.7 44.1767 132.016 44.1767C132.25 44.1767 132.433 44.0429 132.516 43.8588H133.083C132.983 44.3775 132.599 44.729 132 44.729C131.35 44.729 130.883 44.2604 130.883 43.591Z" fill="white"/>
<path d="M135.263 42.4863V44.6952H134.696V43.9589V43.5908L133.546 44.6952H133.379V42.503H133.946V43.1891L133.929 43.574L135.063 42.4863H135.263Z" fill="white"/>
<path d="M137.397 42.5039V44.696H136.83V44.0099H136.53L136.18 44.696H135.58V44.6625L135.996 43.9095C135.747 43.7924 135.629 43.5414 135.629 43.2736C135.629 42.8888 135.897 42.5039 136.413 42.5039H137.397ZM136.213 43.2569C136.213 43.3908 136.314 43.5414 136.48 43.5414H136.847V43.0059H136.48C136.297 43.0059 136.213 43.1231 136.213 43.2569Z" fill="white"/>
<path d="M60.7125 17.3184H59.8789V36.7295H60.7125V17.3184Z" fill="white"/>
<path d="M26.8894 0C12.036 0 0 12.0818 0 26.9916C0 31.9616 1.35031 36.6303 3.68417 40.6297L21.8383 22.4066H11.4693C10.3024 22.4066 9.25207 21.7038 8.80197 20.616C8.35187 19.5284 8.60196 18.2901 9.43544 17.4533L16.4871 10.375C17.0205 9.83946 17.7707 9.52153 18.5375 9.52153H38.4587C41.3761 9.52153 43.7599 11.9145 43.7599 14.8429V34.9569C43.7599 35.7267 43.4431 36.4629 42.9097 37.0152L35.8415 44.1103C35.0079 44.947 33.7743 45.198 32.6908 44.7462C31.6072 44.2944 30.907 43.2401 30.907 42.0688V31.5432L12.6195 49.8668C16.7538 52.4772 21.6382 54 26.8894 54C41.7428 54 53.7955 41.9182 53.7955 26.9916C53.7955 12.0818 41.7428 0 26.8894 0Z" fill="white"/>
<path d="M32.6597 41.9336C32.6597 42.9544 33.8767 43.4565 34.5935 42.7369L41.6451 35.6584C41.8618 35.4409 41.9785 35.1564 41.9785 34.8553V17.7868V14.7245C41.9785 12.7666 40.3948 11.1602 38.4277 11.1602H35.377H18.5232C18.2231 11.1602 17.9397 11.2773 17.723 11.4949L10.6714 18.5732C9.9546 19.2928 10.4547 20.5143 11.4716 20.5143H26.0749L4.63672 42.0508C6.40378 44.6445 8.60429 46.9203 11.1382 48.7611L32.6597 27.1577V41.9336Z" fill="white"/>
</svg>
