<svg width="10" height="9" viewBox="0 0 10 9" fill="none" xmlns="http://www.w3.org/2000/svg">
<path d="M4.09524 0.921925C4.45558 0.156488 5.54443 0.156488 5.90476 0.921926L6.47992 2.1437C6.62568 2.45333 6.91966 2.66692 7.25919 2.70987L8.59889 2.87933C9.43822 2.98549 9.77469 4.02105 9.15807 4.60028L8.17383 5.52484C7.92439 5.75915 7.8121 6.10475 7.87617 6.44093L8.129 7.76743C8.28739 8.59848 7.4065 9.23849 6.66507 8.83104L5.48162 8.18067C5.18169 8.01585 4.81831 8.01585 4.51838 8.18067L3.33493 8.83104C2.5935 9.23849 1.71261 8.59848 1.871 7.76743L2.12383 6.44093C2.1879 6.10475 2.07561 5.75915 1.82617 5.52484L0.841934 4.60028C0.22531 4.02105 0.561783 2.98549 1.40111 2.87933L2.74081 2.70987C3.08034 2.66692 3.37432 2.45333 3.52008 2.1437L4.09524 0.921925Z" fill="#F49301"/>
</svg>
