<svg width="256" height="256" viewBox="0 0 256 256" fill="none" xmlns="http://www.w3.org/2000/svg">
<path d="M128 0C57.3093 0 0 57.3093 0 128C0 151.582 6.40119 173.649 17.522 192.623L103.871 106.274H54.5886C49.0044 106.274 44.0151 102.943 41.8814 97.7867C39.7397 92.6229 40.9137 86.7452 44.8639 82.7951L78.4483 49.2106C80.9945 46.6565 84.5401 45.1811 88.173 45.1811H182.946C196.858 45.1811 208.177 56.5002 208.177 70.4131V165.781C208.177 169.398 206.71 172.943 204.148 175.505L170.564 209.09C166.605 213.04 160.712 214.214 155.564 212.072C150.408 209.93 147.077 204.941 147.077 199.357V149.472L60.1093 236.447C79.7967 248.806 103.046 256 128 256C198.691 256 256 198.691 256 128C256 57.3093 198.691 0 128 0Z" fill="#0152FF"/>
<path d="M155.428 198.825C155.428 203.64 161.25 206.051 164.653 202.649L198.238 169.064C199.253 168.049 199.816 166.677 199.816 165.241V69.8735C199.816 60.5533 192.257 53.002 182.945 53.002H88.1721C86.7364 53.002 85.3642 53.5731 84.3489 54.5804L50.7644 88.1649C47.3616 91.5677 49.7729 97.3899 54.5877 97.3899H124.041L22.082 199.349C30.4662 211.675 40.9604 222.447 53.0171 231.18L155.428 128.769V198.825Z" fill="#20C4F4"/>
</svg>
